<?xml version="1.0" standalone="no"?>
<!DOCTYPE svg PUBLIC "-//W3C//DTD SVG 20010904//EN"
 "http://www.w3.org/TR/2001/REC-SVG-20010904/DTD/svg10.dtd">
<svg version="1.0" xmlns="http://www.w3.org/2000/svg"
 width="500.000000pt" height="500.000000pt" viewBox="0 0 500.000000 500.000000"
 preserveAspectRatio="xMidYMid meet">

<g transform="translate(0.000000,500.000000) scale(0.100000,-0.100000)"
fill="#000000" stroke="none">
<path d="M1757 4769 c-87 -11 -238 -68 -336 -126 -197 -116 -390 -317 -521
-543 -61 -104 -153 -301 -180 -385 -12 -38 -27 -75 -34 -81 -6 -7 -36 -19 -66
-28 -142 -40 -244 -148 -367 -386 -27 -52 -54 -104 -60 -115 -6 -11 -29 -60
-51 -110 -39 -87 -48 -110 -109 -260 l-28 -70 -3 -728 -2 -729 37 -51 c20 -29
47 -66 60 -83 l23 -31 -21 -27 c-12 -15 -30 -26 -44 -26 -58 0 -55 32 -55
-501 l0 -489 1940 0 c1067 0 1940 3 1940 6 0 10 -46 99 -90 173 -50 87 -148
178 -271 253 -130 79 -228 151 -229 166 -1 39 43 74 110 86 71 13 297 116 428
194 40 24 118 82 174 128 81 68 107 84 134 84 56 0 172 29 225 56 58 29 101
71 130 126 24 47 24 74 -2 132 -11 25 -17 51 -14 56 4 6 39 32 78 59 132 89
173 157 148 241 -13 45 -46 89 -75 100 -18 6 -24 23 -39 108 -31 184 -104 317
-251 464 -47 47 -86 90 -86 95 0 6 24 23 53 38 153 83 253 170 294 258 14 29
29 47 40 47 10 0 50 17 88 38 l70 37 1 45 c1 55 10 77 34 85 29 9 72 73 77
114 4 26 -2 52 -17 86 -19 42 -21 54 -11 80 18 50 14 62 -38 111 -41 39 -49
53 -54 91 -6 53 -45 99 -116 135 -54 27 -60 34 -54 58 6 21 -16 43 -112 115
-96 71 -179 114 -295 150 l-56 17 -23 92 c-39 155 -133 327 -228 417 -55 53
-143 106 -215 130 -91 31 -342 38 -454 14 -146 -32 -367 -120 -490 -196 l-32
-19 -95 65 c-52 36 -98 65 -101 65 -3 0 -27 13 -53 28 -82 48 -245 109 -353
132 -73 15 -268 20 -353 9z m1848 -159 c3 -5 1 -10 -4 -10 -6 0 -11 5 -11 10
0 6 2 10 4 10 3 0 8 -4 11 -10z m-815 -194 c0 -3 -4 -8 -10 -11 -5 -3 -10 -1
-10 4 0 6 5 11 10 11 6 0 10 -2 10 -4z m-1650 -116 c0 -5 -2 -10 -4 -10 -3 0
-8 5 -11 10 -3 6 -1 10 4 10 6 0 11 -4 11 -10z m1460 -80 c0 -5 -2 -10 -4 -10
-3 0 -8 5 -11 10 -3 6 -1 10 4 10 6 0 11 -4 11 -10z m1485 -70 c3 -5 1 -10 -4
-10 -6 0 -11 5 -11 10 0 6 2 10 4 10 3 0 8 -4 11 -10z m-1182 -35 c-3 -9 -8
-14 -10 -11 -3 3 -2 9 2 15 9 16 15 13 8 -4z m-93 -5 c0 -5 -2 -10 -4 -10 -3
0 -8 5 -11 10 -3 6 -1 10 4 10 6 0 11 -4 11 -10z m-105 -70 c3 -5 1 -10 -4
-10 -6 0 -11 5 -11 10 0 6 2 10 4 10 3 0 8 -4 11 -10z m45 -60 c0 -5 -8 -10
-17 -10 -15 0 -16 2 -3 10 19 12 20 12 20 0z m-1877 -145 c-3 -9 -8 -14 -10
-11 -3 3 -2 9 2 15 9 16 15 13 8 -4z m1882 -66 c-10 -15 -25 -10 -19 6 4 8 10
12 15 9 5 -3 7 -10 4 -15z m-488 -25 c-3 -3 -12 -4 -19 -1 -8 3 -5 6 6 6 11 1
17 -2 13 -5z m-1467 -74 c0 -5 -4 -10 -10 -10 -5 0 -10 5 -10 10 0 6 5 10 10
10 6 0 10 -4 10 -10z m1247 -12 c-3 -8 -6 -5 -6 6 -1 11 2 17 5 13 3 -3 4 -12
1 -19z m900 -44 c-3 -3 -12 -4 -19 -1 -8 3 -5 6 6 6 11 1 17 -2 13 -5z m760
-40 c-3 -3 -12 -4 -19 -1 -8 3 -5 6 6 6 11 1 17 -2 13 -5z m-3122 -64 c3 -5 1
-10 -4 -10 -6 0 -11 5 -11 10 0 6 2 10 4 10 3 0 8 -4 11 -10z m1230 0 c-3 -5
-13 -10 -21 -10 -8 0 -12 5 -9 10 3 6 13 10 21 10 8 0 12 -4 9 -10z m277 -12
c-6 -6 -15 -8 -19 -4 -4 4 -1 11 7 16 19 12 27 3 12 -12z m2582 -17 c4 -5 -3
-7 -14 -4 -23 6 -26 13 -6 13 8 0 17 -4 20 -9z m-1429 -21 c3 -5 1 -10 -4 -10
-6 0 -11 5 -11 10 0 6 2 10 4 10 3 0 8 -4 11 -10z m1393 -49 c131 -33 189 -66
218 -123 13 -26 24 -62 24 -80 0 -75 -93 -155 -214 -182 -38 -9 -71 -14 -74
-11 -3 3 -14 37 -24 77 -49 195 -134 285 -292 309 -100 16 -177 5 -261 -35
-146 -70 -201 -160 -214 -346 l-6 -95 -85 3 c-78 3 -117 8 -255 33 -142 25
-155 30 -170 59 -14 26 -13 34 4 77 10 26 24 74 30 105 7 31 17 61 24 66 27
23 388 113 549 138 187 30 231 32 448 29 177 -3 230 -7 298 -24z m-1350 -36
c28 -33 30 -103 4 -195 -29 -105 -41 -122 -107 -156 -99 -52 -100 -52 -120 3
-57 156 -102 215 -200 264 -143 70 -386 36 -509 -71 -59 -52 -87 -118 -99
-234 -6 -56 -11 -102 -12 -104 -3 -4 -198 59 -210 68 -5 4 -30 15 -54 24 -85
33 -295 162 -286 176 3 4 33 11 67 15 106 11 277 44 398 76 63 17 167 44 230
61 63 17 160 38 215 48 55 10 121 24 145 30 85 24 155 29 335 25 180 -4 180
-4 203 -30z m-2661 -7 c-3 -7 -5 -2 -5 12 0 14 2 19 5 13 2 -7 2 -19 0 -25z
m1532 -62 c10 -12 8 -13 -8 -9 -12 3 -18 9 -15 14 7 12 10 11 23 -5z m1971
-16 c39 -39 12 -120 -39 -120 -30 0 -71 39 -71 68 0 33 36 72 67 72 13 0 32
-9 43 -20z m-3513 -22 c-3 -8 -6 -5 -6 6 -1 11 2 17 5 13 3 -3 4 -12 1 -19z
m1963 -38 c26 -26 25 -68 -2 -97 -27 -28 -48 -29 -82 -2 -48 38 -22 119 39
119 14 0 34 -9 45 -20z m1770 -80 c29 -29 35 -66 16 -96 -31 -46 -87 -53 -128
-16 -25 21 -24 86 2 112 26 26 83 27 110 0z m-3653 -12 c-3 -8 -6 -5 -6 6 -1
11 2 17 5 13 3 -3 4 -12 1 -19z m2128 -14 c26 -11 44 -62 34 -98 -11 -40 -34
-56 -78 -56 -49 0 -81 32 -81 81 0 59 64 96 125 73z m1263 -98 c4 -32 -10 -46
-46 -46 -27 0 -37 20 -28 56 6 21 11 25 39 22 27 -3 33 -8 35 -32z m-1514 -48
c18 -25 7 -53 -24 -63 -46 -15 -72 57 -27 75 32 13 34 12 51 -12z m2116 2 c-8
-5 -19 -10 -25 -10 -5 0 -3 5 5 10 8 5 20 10 25 10 6 0 3 -5 -5 -10z m-811
-104 c-12 -10 -60 -16 -54 -6 3 5 18 10 32 10 15 0 24 -2 22 -4z m-3752 -68
c-3 -8 -6 -5 -6 6 -1 11 2 17 5 13 3 -3 4 -12 1 -19z m2888 -177 c3 -5 1 -12
-5 -16 -5 -3 -10 1 -10 9 0 18 6 21 15 7z m902 -187 c-3 -3 -12 -4 -19 -1 -8
3 -5 6 6 6 11 1 17 -2 13 -5z m-1670 -86 c-3 -8 -6 -5 -6 6 -1 11 2 17 5 13 3
-3 4 -12 1 -19z m2084 5 c13 -16 12 -17 -3 -4 -17 13 -22 21 -14 21 2 0 10 -8
17 -17z m-3004 -585 c-3 -8 -6 -5 -6 6 -1 11 2 17 5 13 3 -3 4 -12 1 -19z
m-270 -450 c-3 -7 -5 -2 -5 12 0 14 2 19 5 13 2 -7 2 -19 0 -25z m506 -35
c-13 -2 -35 -2 -50 0 -16 2 -5 4 22 4 28 0 40 -2 28 -4z m365 -730 c-10 -2
-26 -2 -35 0 -10 3 -2 5 17 5 19 0 27 -2 18 -5z"/>
</g>
</svg>
